PathFileType	3	(X/Y/Z)	C:\Users\koon_\Desktop\
DataRate	CameraRate	NumFrames	NumMarkers	Units	OrigDataRate	OrigDataStartFrame	OrigNumFrames
100.0	100.0	10	27	mm	100.0	503	2010	
Frame#	Time	get:LFHD			get:RFHD			get:LBHD			get:RBHD			get:C7			get:T10			get:CLAV			get:STRN			get:RBAK			get:LSHO			get:LUPA			get:LELB			get:LFRA			get:LWRA			get:LWRB			get:LFIN			get:RSHO			get:RUPA			get:RELB			get:RFRA			get:RWRA			get:RWRB			get:RFIN			get:LASI			get:RASI			get:LPSI			get:RPSI			
		X1	Y1	Z1	X2	Y2	Z2	X3	Y3	Z3	X4	Y4	Z4	X5	Y5	Z5	X6	Y6	Z6	X7	Y7	Z7	X8	Y8	Z8	X9	Y9	Z9	X10	Y10	Z10	X11	Y11	Z11	X12	Y12	Z12	X13	Y13	Z13	X14	Y14	Z14	X15	Y15	Z15	X16	Y16	Z16	X17	Y17	Z17	X18	Y18	Z18	X19	Y19	Z19	X20	Y20	Z20	X21	Y21	Z21	X22	Y22	Z22	X23	Y23	Z23	X24	Y24	Z24	X25	Y25	Z25	X26	Y26	Z26	X27	Y27	Z27	
503	5.02	125.1951	1557.1251	-84.350746	-28.120911	1526.501	-102.89197	137.08324	1535.8806	-207.00177	15.406974	1519.4131	-241.24741	76.882042	1349.8198	-234.43083	64.112328	1090.1307	-292.00226	73.958252	1262.015	-56.536499	80.99128	1069.0667	-32.653133	-5.8697538	1287.2407	-270.07922	236.98608	1331.9612	-154.22812	318.52628	1201.0686	-157.20784	389.5098	1047.9047	-184.90204	404.20407	1016.5768	-66.224037	423.54053	960.74677	3.9222674	473.50516	938.97003	-38.029026	506.43176	928.3183	40.657761	-72.674294	1341.3447	-154.45129	-234.93999	1181.0859	-142.4093	-287.84647	1092.6824	-187.74883	-331.56073	1084.6228	-92.03846	-422.83456	999.64435	-13.397991	-441.68411	975.57959	-81.348442	-502.95663	980.0788	-16.974981	198.92514	888.98969	-127.23666	-82.756645	870.20502	-129.36615	109.18089	927.61511	-327.59015	2.1790941	911.05475	-330.73285
504	5.03	126.53838	1556.4523	-84.688965	-26.996946	1527.322	-103.24246	138.41301	1535.1649	-207.28195	16.504036	1519.8162	-241.6239	74.937958	1349.8872	-234.71768	61.194881	1090.0349	-293.01135	72.618065	1260.0317	-56.811501	78.792976	1066.3146	-32.679337	-8.8487768	1287.9397	-270.55035	235.73181	1330.345	-155.05757	315.15308	1198.4135	-156.09689	385.24664	1043.213	-180.87259	398.58292	1008.9633	-63.140125	416.29919	951.19086	5.253221	466.30313	929.42542	-36.703651	497.93851	915.77301	42.360733	-74.953247	1340.5695	-153.66481	-233.74866	1176.2719	-143.3318	-285.98541	1088.3625	-189.35574	-328.63773	1078.7756	-93.245728	-418.08731	992.1615	-14.670019	-437.27283	968.34851	-82.636322	-497.76981	972.04968	-17.928768	197.81317	889.58154	-127.60389	-84.214714	869.36664	-128.87447	106.70301	927.17346	-328.16489	-0.27402624	910.42883	-330.64624
505	5.04	128.11201	1555.5586	-84.944633	-25.813219	1528.1566	-103.48821	139.75648	1534.3354	-207.50584	17.655598	1520.3578	-241.8885	72.867004	1350.3657	-234.93533	58.030815	1090.5128	-293.77411	70.732704	1257.9114	-57.050316	76.322617	1063.9972	-32.476032	-11.697074	1288.7147	-270.72354	234.14752	1328.9436	-155.5788	311.34073	1196.0094	-155.32047	380.37204	1039.027	-177.11877	392.56525	1001.3329	-60.509624	409.28412	941.64795	5.9495797	458.53235	919.56268	-36.145622	489.17944	902.43616	43.026592	-77.232201	1339.958	-152.49959	-232.58023	1171.9603	-144.52893	-283.61035	1083.8444	-191.18033	-325.44516	1072.6573	-94.693626	-412.82581	984.19519	-16.123796	-432.12454	960.50946	-84.191261	-491.99332	963.18719	-19.411562	196.39384	890.54407	-128.02412	-85.640083	869.51526	-128.39687	104.74316	927.20032	-328.75784	-2.3485887	910.45789	-330.67032
506	5.05	129.72873	1554.413	-85.115593	-24.489124	1529.0801	-103.40685	141.05023	1533.1553	-207.63817	18.711746	1520.8143	-241.93419	70.763451	1351.1283	-234.95364	55.239483	1091.1897	-294.22998	68.823372	1255.9742	-57.383747	73.56813	1062.1996	-32.091599	-14.481152	1289.5393	-270.46173	232.29008	1327.6702	-155.89955	307.09048	1193.8284	-154.81802	373.9469	1035.0389	-173.83414	386.03036	993.60999	-58.381741	401.23746	931.39661	6.5014114	450.11081	909.54071	-36.337582	480.05826	888.36212	42.547661	-79.343323	1339.5715	-151.16176	-231.39607	1168.2539	-145.45557	-280.71033	1079.2505	-192.99716	-321.66867	1066.1351	-96.361816	-407.01605	975.69165	-18.048058	-426.09775	952.1626	-86.241096	-485.71069	953.44415	-21.084059	194.74742	891.81866	-128.28842	-86.996666	870.27026	-127.93627	103.12644	927.59961	-329.04575	-4.0249753	910.71973	-330.18375
507	5.06	131.42957	1553.158	-85.174591	-23.325882	1530.032	-103.36355	142.24226	1531.7467	-207.74454	19.669395	1521.1202	-241.83868	68.621529	1351.9	-234.95615	52.861897	1092.2523	-294.52725	66.883774	1254.6967	-58.15358	71.215134	1061.2802	-31.742689	-17.404339	1290.787	-270.45053	230.1075	1326.4874	-156.43613	302.85983	1191.6016	-154.5883	366.99216	1030.9874	-170.84172	379.03391	985.84351	-56.497654	393.08514	921.13354	6.5668893	441.0733	899.25885	-37.375301	470.51715	873.82922	40.937027	-81.572105	1339.4324	-150.04294	-230.58537	1164.9038	-146.30597	-277.04587	1074.876	-195.12692	-317.96378	1059.6495	-98.390289	-400.63071	966.76843	-20.214628	-419.41296	943.19806	-88.414085	-478.60281	943.02759	-24.062298	192.90704	893.32495	-127.9055	-88.154198	871.50732	-127.42101	101.71559	928.14661	-328.86368	-5.1197309	911.26019	-330.35675
508	5.07	132.95506	1551.8958	-85.27906	-22.116409	1531.0914	-102.91821	143.20044	1530.1151	-207.77486	20.437689	1521.2739	-241.53746	66.476936	1352.7249	-235.16168	50.605476	1093.3861	-294.75458	64.934235	1254.6689	-58.824303	68.841011	1061.5985	-31.924259	-20.309088	1292.068	-270.4454	228.03256	1325.4542	-157.34109	298.92828	1189.5674	-154.42633	359.55502	1026.9758	-167.96625	371.50113	977.92731	-55.050789	384.44022	910.62531	6.0029979	431.41504	888.69147	-39.393555	460.44876	859.09265	37.944637	-83.866066	1339.5587	-149.25024	-230.27065	1161.6105	-146.85185	-273.21375	1070.3794	-197.09967	-314.04355	1053.2148	-100.55346	-393.65924	957.40692	-22.764153	-411.957	933.87201	-91.043266	-471.04462	931.94183	-26.822058	191.2262	894.74615	-127.18433	-89.210083	873.00238	-126.74995	100.51491	928.55298	-328.38315	-6.1795015	911.84229	-329.86884
509	5.08	134.41948	1550.7169	-85.288437	-21.062965	1532.1512	-102.38226	143.87627	1528.5135	-207.83694	20.885807	1521.4349	-241.0383	64.444473	1353.7141	-236.08449	48.532375	1094.3285	-295.04352	63.041882	1255.2059	-59.618816	66.460297	1062.9034	-32.910194	-22.938831	1293.2676	-270.4903	225.97382	1324.6152	-158.64734	294.72705	1187.8909	-153.7702	352.00565	1022.9749	-165.38211	363.79941	970.2298	-54.053188	375.12909	900.05896	4.8557611	421.16354	878.61072	-41.921379	449.71667	844.62994	33.685661	-86.215866	1339.8846	-148.84996	-230.02605	1158.5385	-147.15179	-269.23181	1066.2197	-199.15294	-310.2027	1047.0436	-102.7546	-386.1485	947.67566	-25.671711	-403.86972	924.08112	-94.081581	-462.89902	920.05872	-29.408129	189.81886	895.6474	-127.09016	-90.292694	874.34729	-125.94715	99.301994	928.93903	-327.78448	-7.3311396	912.26727	-328.98486
510	5.09	135.68475	1549.5211	-85.24926	-20.239334	1533.2629	-101.28479	144.24475	1527.123	-207.82193	21.081057	1521.6614	-240.39095	62.281693	1353.9053	-236.45413	46.590881	1095.0183	-295.46805	61.120789	1256.2162	-60.717823	64.461838	1064.688	-34.664761	-25.215158	1294.3666	-270.81216	223.9158	1324.0895	-160.00325	290.50403	1186.3635	-153.00641	344.51459	1019.0063	-163.10143	355.44107	962.4519	-53.368282	365.17581	889.60364	2.8392074	410.2991	868.95404	-45.032963	438.27905	830.50739	28.501989	-88.551689	1340.3444	-148.86101	-229.57393	1155.9747	-147.47791	-265.42477	1062.3418	-200.75288	-306.12729	1040.4868	-104.96747	-378.36398	937.74329	-28.750887	-395.21631	913.98749	-97.403236	-453.78265	907.52887	-30.781597	188.49222	896.26532	-126.94673	-91.394608	875.4917	-125.07648	97.985687	929.05225	-327.03549	-8.6180744	912.45599	-327.7244
511	5.1	136.79634	1548.3691	-85.160919	-19.325268	1534.1338	-100.6627	144.46764	1525.9149	-207.78984	21.067242	1522.2104	-239.75052	60.189621	1354.1572	-237.13553	44.820068	1095.3599	-295.92221	59.192577	1257.6003	-61.752522	62.589584	1066.5853	-36.304768	-27.161049	1294.9434	-271.11411	221.94058	1323.7134	-161.23036	286.26611	1185.0233	-152.1918	336.93799	1015.2793	-161.41339	346.69098	955.13953	-53.550594	354.32974	879.43488	0.12063359	398.9433	859.70905	-48.803333	425.8479	817.07672	22.5856	-90.780121	1340.8378	-149.28244	-228.76602	1153.9473	-147.9447	-262.13132	1058.6567	-201.88652	-302.29056	1034.1677	-106.76241	-370.19662	927.46252	-31.928801	-385.67383	903.91699	-101.05743	-444.51068	894.69135	-34.293442	187.31927	896.59094	-126.68977	-92.530487	876.33093	-123.92652	96.527969	928.92889	-326.19556	-9.782568	912.48639	-327.37155
512	5.11	137.78334	1547.1007	-85.017555	-18.690203	1535.0015	-99.819939	144.48654	1524.9418	-207.67308	20.932568	1522.8988	-239.12411	58.368629	1354.2953	-237.94995	43.116653	1095.3938	-296.20029	57.320736	1258.7739	-62.591656	60.897781	1068.321	-37.62249	-28.828136	1295.1307	-271.54303	220.19734	1323.4229	-162.1947	281.7999	1183.6294	-151.40276	329.30283	1011.9233	-160.45352	337.43655	948.23083	-54.475208	342.68332	869.69757	-3.6703255	387.40021	851.50934	-53.114635	412.48093	804.52411	16.329992	-92.862877	1341.1921	-150.01581	-227.88232	1152.1603	-148.39658	-258.99316	1055.6196	-202.98027	-298.63483	1028.0189	-108.2659	-361.97397	917.32623	-35.339268	-376.39771	893.9306	-104.32228	-434.86032	881.414	-37.817745	186.14883	896.60266	-126.4577	-93.886017	876.75476	-122.90505	95.036842	928.47852	-325.4957	-11.274646	912.12396	-326.50128
